<mxfile host="app.diagrams.net" agent="Mozilla/5.0 (Windows NT 10.0; Win64; x64) AppleWebKit/537.36 (KHTML, like Gecko) Chrome/131.0.0.0 Safari/537.36" version="25.0.3">
  <diagram id="C5RBs43oDa-KdzZeNtuy" name="Page-1">
    <mxGraphModel dx="1285" dy="651" grid="0" gridSize="10" guides="1" tooltips="1" connect="1" arrows="1" fold="1" page="0" pageScale="1" pageWidth="827" pageHeight="1169" math="0" shadow="0">
      <root>
        <mxCell id="WIyWlLk6GJQsqaUBKTNV-0" />
        <mxCell id="WIyWlLk6GJQsqaUBKTNV-1" parent="WIyWlLk6GJQsqaUBKTNV-0" />
        <mxCell id="XGBNuJWRDXT0jH--8XD_-7" style="edgeStyle=orthogonalEdgeStyle;rounded=0;orthogonalLoop=1;jettySize=auto;html=1;entryX=0.5;entryY=0;entryDx=0;entryDy=0;" parent="WIyWlLk6GJQsqaUBKTNV-1" source="XGBNuJWRDXT0jH--8XD_-1" target="XGBNuJWRDXT0jH--8XD_-3" edge="1">
          <mxGeometry relative="1" as="geometry" />
        </mxCell>
        <mxCell id="XGBNuJWRDXT0jH--8XD_-1" value="S0/0" style="ellipse;whiteSpace=wrap;html=1;aspect=fixed;" parent="WIyWlLk6GJQsqaUBKTNV-1" vertex="1">
          <mxGeometry x="270" y="170" width="90" height="90" as="geometry" />
        </mxCell>
        <mxCell id="XGBNuJWRDXT0jH--8XD_-12" style="edgeStyle=orthogonalEdgeStyle;rounded=0;orthogonalLoop=1;jettySize=auto;html=1;entryX=0.5;entryY=0;entryDx=0;entryDy=0;" parent="WIyWlLk6GJQsqaUBKTNV-1" source="XGBNuJWRDXT0jH--8XD_-3" target="XGBNuJWRDXT0jH--8XD_-4" edge="1">
          <mxGeometry relative="1" as="geometry" />
        </mxCell>
        <mxCell id="2J8As_aUuJhc1Xifo1Dg-9" style="edgeStyle=orthogonalEdgeStyle;shape=connector;curved=1;rounded=0;orthogonalLoop=1;jettySize=auto;html=1;strokeColor=default;align=center;verticalAlign=middle;fontFamily=Helvetica;fontSize=11;fontColor=default;labelBackgroundColor=default;endArrow=classic;entryX=0;entryY=0;entryDx=0;entryDy=0;" edge="1" parent="WIyWlLk6GJQsqaUBKTNV-1" source="XGBNuJWRDXT0jH--8XD_-3" target="XGBNuJWRDXT0jH--8XD_-3">
          <mxGeometry relative="1" as="geometry">
            <mxPoint x="268" y="332" as="targetPoint" />
            <Array as="points">
              <mxPoint x="214" y="364" />
              <mxPoint x="214" y="305" />
              <mxPoint x="283" y="305" />
            </Array>
          </mxGeometry>
        </mxCell>
        <mxCell id="XGBNuJWRDXT0jH--8XD_-3" value="S1/0" style="ellipse;whiteSpace=wrap;html=1;aspect=fixed;" parent="WIyWlLk6GJQsqaUBKTNV-1" vertex="1">
          <mxGeometry x="270" y="320" width="90" height="90" as="geometry" />
        </mxCell>
        <mxCell id="2J8As_aUuJhc1Xifo1Dg-1" style="edgeStyle=orthogonalEdgeStyle;rounded=0;orthogonalLoop=1;jettySize=auto;html=1;entryX=0.5;entryY=0;entryDx=0;entryDy=0;" edge="1" parent="WIyWlLk6GJQsqaUBKTNV-1" source="XGBNuJWRDXT0jH--8XD_-4" target="2J8As_aUuJhc1Xifo1Dg-0">
          <mxGeometry relative="1" as="geometry" />
        </mxCell>
        <mxCell id="2J8As_aUuJhc1Xifo1Dg-3" style="edgeStyle=orthogonalEdgeStyle;rounded=0;orthogonalLoop=1;jettySize=auto;html=1;strokeColor=none;curved=1;entryX=0;entryY=1;entryDx=0;entryDy=0;" edge="1" parent="WIyWlLk6GJQsqaUBKTNV-1" source="XGBNuJWRDXT0jH--8XD_-4" target="XGBNuJWRDXT0jH--8XD_-3">
          <mxGeometry relative="1" as="geometry">
            <mxPoint x="204.66668701171875" y="412.00006103515625" as="targetPoint" />
          </mxGeometry>
        </mxCell>
        <mxCell id="2J8As_aUuJhc1Xifo1Dg-7" style="edgeStyle=orthogonalEdgeStyle;shape=connector;curved=1;rounded=0;orthogonalLoop=1;jettySize=auto;html=1;entryX=0;entryY=1;entryDx=0;entryDy=0;strokeColor=default;align=center;verticalAlign=middle;fontFamily=Helvetica;fontSize=11;fontColor=default;labelBackgroundColor=default;endArrow=classic;" edge="1" parent="WIyWlLk6GJQsqaUBKTNV-1" source="XGBNuJWRDXT0jH--8XD_-4" target="XGBNuJWRDXT0jH--8XD_-3">
          <mxGeometry relative="1" as="geometry">
            <Array as="points">
              <mxPoint x="182" y="525" />
              <mxPoint x="182" y="397" />
            </Array>
          </mxGeometry>
        </mxCell>
        <mxCell id="XGBNuJWRDXT0jH--8XD_-4" value="S2/0" style="ellipse;whiteSpace=wrap;html=1;aspect=fixed;" parent="WIyWlLk6GJQsqaUBKTNV-1" vertex="1">
          <mxGeometry x="270" y="480" width="90" height="90" as="geometry" />
        </mxCell>
        <mxCell id="XGBNuJWRDXT0jH--8XD_-5" style="edgeStyle=orthogonalEdgeStyle;rounded=0;orthogonalLoop=1;jettySize=auto;html=1;entryX=1.008;entryY=0.441;entryDx=0;entryDy=0;curved=1;entryPerimeter=0;exitX=0.5;exitY=0;exitDx=0;exitDy=0;" parent="WIyWlLk6GJQsqaUBKTNV-1" source="XGBNuJWRDXT0jH--8XD_-1" target="XGBNuJWRDXT0jH--8XD_-1" edge="1">
          <mxGeometry relative="1" as="geometry">
            <mxPoint x="330" y="170.27864045000422" as="sourcePoint" />
            <mxPoint x="369.999999999999" y="215" as="targetPoint" />
            <Array as="points">
              <mxPoint x="315" y="150" />
              <mxPoint x="400" y="150" />
              <mxPoint x="400" y="210" />
            </Array>
          </mxGeometry>
        </mxCell>
        <mxCell id="XGBNuJWRDXT0jH--8XD_-6" value="1" style="edgeLabel;html=1;align=center;verticalAlign=middle;resizable=0;points=[];" parent="XGBNuJWRDXT0jH--8XD_-5" vertex="1" connectable="0">
          <mxGeometry x="-0.1125" y="-7" relative="1" as="geometry">
            <mxPoint x="-9" y="-19" as="offset" />
          </mxGeometry>
        </mxCell>
        <mxCell id="XGBNuJWRDXT0jH--8XD_-10" value="&lt;div style=&quot;text-align: left;&quot;&gt;0&lt;/div&gt;" style="edgeLabel;html=1;align=center;verticalAlign=middle;resizable=0;points=[];" parent="WIyWlLk6GJQsqaUBKTNV-1" vertex="1" connectable="0">
          <mxGeometry x="327.0000000000001" y="262.9999999999999" as="geometry">
            <mxPoint y="25" as="offset" />
          </mxGeometry>
        </mxCell>
        <mxCell id="XGBNuJWRDXT0jH--8XD_-13" value="&lt;div style=&quot;text-align: left;&quot;&gt;1&lt;/div&gt;" style="edgeLabel;html=1;align=center;verticalAlign=middle;resizable=0;points=[];" parent="WIyWlLk6GJQsqaUBKTNV-1" vertex="1" connectable="0">
          <mxGeometry x="327.0000000000001" y="440.9999999999999" as="geometry">
            <mxPoint as="offset" />
          </mxGeometry>
        </mxCell>
        <mxCell id="XGBNuJWRDXT0jH--8XD_-15" value="&lt;div style=&quot;text-align: center;&quot;&gt;&lt;span style=&quot;background-color: initial; font-size: 11px; text-wrap-mode: nowrap;&quot;&gt;0&lt;/span&gt;&lt;/div&gt;" style="text;whiteSpace=wrap;html=1;" parent="WIyWlLk6GJQsqaUBKTNV-1" vertex="1">
          <mxGeometry x="162" y="450" width="17" height="30" as="geometry" />
        </mxCell>
        <mxCell id="XGBNuJWRDXT0jH--8XD_-28" value="&lt;div style=&quot;text-align: left;&quot;&gt;0&lt;/div&gt;" style="edgeLabel;html=1;align=center;verticalAlign=middle;resizable=0;points=[];" parent="WIyWlLk6GJQsqaUBKTNV-1" vertex="1" connectable="0">
          <mxGeometry x="205.0000000000001" y="312.9999999999999" as="geometry">
            <mxPoint x="-2" y="13" as="offset" />
          </mxGeometry>
        </mxCell>
        <mxCell id="2J8As_aUuJhc1Xifo1Dg-10" style="edgeStyle=orthogonalEdgeStyle;shape=connector;curved=1;rounded=0;orthogonalLoop=1;jettySize=auto;html=1;entryX=0;entryY=0.5;entryDx=0;entryDy=0;strokeColor=default;align=center;verticalAlign=middle;fontFamily=Helvetica;fontSize=11;fontColor=default;labelBackgroundColor=default;endArrow=classic;" edge="1" parent="WIyWlLk6GJQsqaUBKTNV-1" source="2J8As_aUuJhc1Xifo1Dg-0" target="XGBNuJWRDXT0jH--8XD_-1">
          <mxGeometry relative="1" as="geometry">
            <Array as="points">
              <mxPoint x="120" y="685" />
              <mxPoint x="120" y="215" />
            </Array>
          </mxGeometry>
        </mxCell>
        <mxCell id="2J8As_aUuJhc1Xifo1Dg-14" style="edgeStyle=orthogonalEdgeStyle;shape=connector;curved=1;rounded=0;orthogonalLoop=1;jettySize=auto;html=1;entryX=1;entryY=0.5;entryDx=0;entryDy=0;strokeColor=default;align=center;verticalAlign=middle;fontFamily=Helvetica;fontSize=11;fontColor=default;labelBackgroundColor=default;endArrow=classic;" edge="1" parent="WIyWlLk6GJQsqaUBKTNV-1" source="2J8As_aUuJhc1Xifo1Dg-0" target="XGBNuJWRDXT0jH--8XD_-3">
          <mxGeometry relative="1" as="geometry">
            <Array as="points">
              <mxPoint x="434" y="676" />
              <mxPoint x="434" y="365" />
            </Array>
          </mxGeometry>
        </mxCell>
        <mxCell id="2J8As_aUuJhc1Xifo1Dg-0" value="S3&lt;span style=&quot;background-color: initial;&quot;&gt;/1&lt;/span&gt;" style="ellipse;whiteSpace=wrap;html=1;aspect=fixed;" vertex="1" parent="WIyWlLk6GJQsqaUBKTNV-1">
          <mxGeometry x="270" y="640" width="90" height="90" as="geometry" />
        </mxCell>
        <mxCell id="2J8As_aUuJhc1Xifo1Dg-2" value="&lt;div style=&quot;text-align: left;&quot;&gt;1&lt;/div&gt;" style="edgeLabel;html=1;align=center;verticalAlign=middle;resizable=0;points=[];" vertex="1" connectable="0" parent="WIyWlLk6GJQsqaUBKTNV-1">
          <mxGeometry x="337.0000000000001" y="450.9999999999999" as="geometry">
            <mxPoint x="-10" y="149" as="offset" />
          </mxGeometry>
        </mxCell>
        <mxCell id="2J8As_aUuJhc1Xifo1Dg-11" value="&lt;div style=&quot;text-align: left;&quot;&gt;1&lt;/div&gt;" style="edgeLabel;html=1;align=center;verticalAlign=middle;resizable=0;points=[];" vertex="1" connectable="0" parent="WIyWlLk6GJQsqaUBKTNV-1">
          <mxGeometry x="103.00000000000011" y="414.9999999999999" as="geometry">
            <mxPoint x="-2" y="13" as="offset" />
          </mxGeometry>
        </mxCell>
        <mxCell id="2J8As_aUuJhc1Xifo1Dg-13" value="&lt;div style=&quot;text-align: left;&quot;&gt;0&lt;/div&gt;" style="edgeLabel;html=1;align=center;verticalAlign=middle;resizable=0;points=[];" vertex="1" connectable="0" parent="WIyWlLk6GJQsqaUBKTNV-1">
          <mxGeometry x="536.0000000000001" y="495.9999999999999" as="geometry">
            <mxPoint x="-89" y="27" as="offset" />
          </mxGeometry>
        </mxCell>
        <mxCell id="2J8As_aUuJhc1Xifo1Dg-20" value="Reset" style="text;html=1;align=center;verticalAlign=middle;resizable=0;points=[];autosize=1;strokeColor=none;fillColor=none;fontFamily=Helvetica;fontSize=11;fontColor=default;labelBackgroundColor=default;" vertex="1" parent="WIyWlLk6GJQsqaUBKTNV-1">
          <mxGeometry x="193" y="117" width="47" height="25" as="geometry" />
        </mxCell>
        <mxCell id="2J8As_aUuJhc1Xifo1Dg-22" style="shape=connector;rounded=0;orthogonalLoop=1;jettySize=auto;html=1;entryX=0.126;entryY=0.192;entryDx=0;entryDy=0;entryPerimeter=0;strokeColor=default;align=center;verticalAlign=middle;fontFamily=Helvetica;fontSize=11;fontColor=default;labelBackgroundColor=default;endArrow=classic;exitX=1.002;exitY=1.026;exitDx=0;exitDy=0;exitPerimeter=0;" edge="1" parent="WIyWlLk6GJQsqaUBKTNV-1" source="2J8As_aUuJhc1Xifo1Dg-20" target="XGBNuJWRDXT0jH--8XD_-1">
          <mxGeometry relative="1" as="geometry" />
        </mxCell>
      </root>
    </mxGraphModel>
  </diagram>
</mxfile>
